<svg width="332" height="332" viewBox="0 0 332 332" fill="none" xmlns="http://www.w3.org/2000/svg"><rect x="24" y="22" width="280" height="280" rx="45" fill="#fff"/><g filter="url(#a)"><path d="M314 240c0 25.202 0 37.804-4.905 47.43a45 45 0 0 1-19.665 19.665C279.804 312 267.202 312 242 312H86c-25.202 0-37.803 0-47.43-4.905a45 45 0 0 1-19.665-19.665C14 277.804 14 265.202 14 240V84c0-25.202 0-37.803 4.905-47.43A45 45 0 0 1 38.57 16.905C48.197 12 60.798 12 86 12h156c25.202 0 37.804 0 47.43 4.905a45 45 0 0 1 19.665 19.665C314 46.197 314 58.798 314 84zM274.456 49.708c1.357-3.043-2.511-5.714-4.866-3.358L114.026 201.913c-2.135 2.135-5.778.114-5.171-2.844 5.481-26.669 5.736-45.632-1.211-70.311-.546-1.939.893-3.892 2.908-3.892h41.247c.815 0 1.596-.332 2.162-.92l50.094-52.05c1.83-1.902.489-5.07-2.151-5.08l-18.328-.07a3 3 0 0 0-2.191.939l-35.26 37.31a3 3 0 0 1-2.188.94l-63.248-.172c-2.065-.006-3.508 2.058-2.859 4.019 21.149 63.852 9.295 98.68-19.47 168.687-1.246 3.034 2.576 5.6 4.896 3.28l153.392-153.393c2.169-2.167 5.898-.037 5.238 2.957-6.138 27.823-4.874 47.029 1.613 70.278.539 1.932-.899 3.869-2.905 3.869h-41.276c-.815 0-1.595.332-2.161.919l-50.094 52.051c-1.83 1.902-.49 5.069 2.15 5.08l18.328.071a3 3 0 0 0 2.191-.939l35.26-37.311a3 3 0 0 1 2.189-.939l63.187.17c2.083.006 3.526-2.092 2.844-4.06-22.682-65.418-10.77-98.994 21.244-170.794" fill="url(#b)"/></g><defs><linearGradient id="b" x1="314" y1="23.962" x2="14" y2="310.384" gradientUnits="userSpaceOnUse"><stop stop-color="#1495ff"/><stop offset="1" stop-color="#8e24ff"/></linearGradient><filter id="a" x="0" y="0" width="332" height="332" filterUnits="userSpaceOnUse" color-interpolation-filters="sRGB"><feFlood flood-opacity="0" result="BackgroundImageFix"/><feColorMatrix in="SourceAlpha" values="0 0 0 0 0 0 0 0 0 0 0 0 0 0 0 0 0 0 127 0" result="hardAlpha"/><feOffset dx="2" dy="4"/><feGaussianBlur stdDeviation="8"/><feComposite in2="hardAlpha" operator="out"/><feColorMatrix values="0 0 0 0 0 0 0 0 0 0 0 0 0 0 0 0 0 0 0.3 0"/><feBlend in2="BackgroundImageFix" result="effect1_dropShadow_120_29"/><feColorMatrix in="SourceAlpha" values="0 0 0 0 0 0 0 0 0 0 0 0 0 0 0 0 0 0 127 0" result="hardAlpha"/><feOffset dx="1" dy="1"/><feGaussianBlur stdDeviation="1.5"/><feComposite in2="hardAlpha" operator="out"/><feColorMatrix values="0 0 0 0 0 0 0 0 0 0 0 0 0 0 0 0 0 0 0.3 0"/><feBlend in2="effect1_dropShadow_120_29" result="effect2_dropShadow_120_29"/><feBlend in="SourceGraphic" in2="effect2_dropShadow_120_29" result="shape"/><feColorMatrix in="SourceAlpha" values="0 0 0 0 0 0 0 0 0 0 0 0 0 0 0 0 0 0 127 0" result="hardAlpha"/><feOffset dy="1"/><feGaussianBlur stdDeviation="1"/><feComposite in2="hardAlpha" operator="arithmetic" k2="-1" k3="1"/><feColorMatrix values="0 0 0 0 1 0 0 0 0 1 0 0 0 0 1 0 0 0 0.4 0"/><feBlend in2="shape" result="effect3_innerShadow_120_29"/><feColorMatrix in="SourceAlpha" values="0 0 0 0 0 0 0 0 0 0 0 0 0 0 0 0 0 0 127 0" result="hardAlpha"/><feOffset dy="-1"/><feGaussianBlur stdDeviation="1"/><feComposite in2="hardAlpha" operator="arithmetic" k2="-1" k3="1"/><feColorMatrix values="0 0 0 0 0 0 0 0 0 0 0 0 0 0 0 0 0 0 0.25 0"/><feBlend in2="effect3_innerShadow_120_29" result="effect4_innerShadow_120_29"/></filter></defs></svg>